#format: frame checksums
#version: 2
#hash: MD5
#tb 0: 1/8000
#media_type 0: audio
#codec_id 0: pcm_s16le
#sample_rate 0: 8000
#channel_layout_name 0: mono
#stream#, dts,        pts, duration,     size, hash
0,          0,          0,      640,     1280, 80f3a3b7c1a85914f6ca5cdb308cb0fd
0,        640,        640,      640,     1280, c26971cc7e416d33e9ff20556912213b
0,       1280,       1280,      640,     1280, 786e4e6ac64aac8b3a65e6bd224e8173
0,       1920,       1920,      640,     1280, 47aac472631837335e24fa68c5965f11
0,       2560,       2560,      640,     1280, 65c40426d04a19244294be5d64abaeda
0,       3200,       3200,      640,     1280, 67b4f4a00b00a0be9e2da4250bc67880
0,       3840,       3840,      640,     1280, 511d3e61cb1dc29e67cec72f2f814d01
0,       4480,       4480,      640,     1280, 49cbbcc20e1b50575e419c7b970f34e8
0,       5120,       5120,      640,     1280, 48f867700f6f8d5f4b05ca746d5cf2f3
0,       5760,       5760,      640,     1280, 1b8f7f925a49b57949a212e1e83c41ff
0,       6400,       6400,      640,     1280, 5e64ef1c54f1ede5f12d3d685a9482f5
0,       7040,       7040,      640,     1280, ec9c5d43bbe03d7fa6288c59afcdb272
0,       7680,       7680,      640,     1280, 27ff9ebc31d0398cded602c77ce0913e
0,       8320,       8320,      640,     1280, 603b757cfd5c5ed46f9792a548e451d5
0,       8960,       8960,      640,     1280, 78017062224d22f94aee954d890f63a9
0,       9600,       9600,      640,     1280, 7eb92b65d7b6a0a24ccfbfadf727a40c
0,      10240,      10240,      640,     1280, 030c034e519e9c087633bc026c97c94e
0,      10880,      10880,      640,     1280, 7faf7a1968bcd3eb0a1396f0ee0ea65d
0,      11520,      11520,      640,     1280, 045367e6485bc0dd469e7527331331d2
0,      12160,      12160,      640,     1280, ecd404e7f8c59b4e96f250b5dc19338e
0,      12800,      12800,      640,     1280, a1c813c6168bf6459511f8987b834dd3
0,      13440,      13440,      640,     1280, e43f4dfa59b35f702899d26765a15a5b
0,      14080,      14080,      640,     1280, 9c18838023c3b827e483dfe942a1008a
0,      14720,      14720,      640,     1280, be139ae159ee6b761d218074d9890fb4
0,      15360,      15360,      640,     1280, e8b1ad160f9cdba6586f4d8113d94a5c
0,      16000,      16000,      640,     1280, f3317df77243b721586cb4b621e74e0e
0,      16640,      16640,      640,     1280, d050113c65cefcb188e63ea7b98c1de6
0,      17280,      17280,      640,     1280, f1c73e8b20b253785eddf40e29597803
0,      17920,      17920,      640,     1280, 15f7e6d5a9dc449b0f201f4eb2f015e1
0,      18560,      18560,      640,     1280, 2e7cd361b9f5514950020fa9b7fe0f89
0,      19200,      19200,      640,     1280, a2b6753d2dab353931373df09d6dcb9f
0,      19840,      19840,      640,     1280, 566b1b88df80217253f746d66b6edf15
0,      20480,      20480,      640,     1280, 0930f17f7f9dbf22bf7996e971f92989
0,      21120,      21120,      640,     1280, caecb9a421b624b9bde4d1a9391b1b7c
0,      21760,      21760,      640,     1280, 4ae25bf74ad074c691da38a0b23df23e
0,      22400,      22400,      640,     1280, 94625b39581eb4c734cf06895f1d27b9
0,      23040,      23040,      640,     1280, 4bd49aa3b136246bc9acf3da1df3e258
0,      23680,      23680,      640,     1280, 13e7ab6cc2e3603923dbf3d95810cfa1
0,      24320,      24320,      640,     1280, bc083289c9f0e230064f7a9606b5ae61
0,      24960,      24960,      640,     1280, a6420a56c064963c228fbb022262a9e8
0,      25600,      25600,      640,     1280, 4ad4b04a7c728cf1e4f79bf2e98b5f01
0,      26240,      26240,      640,     1280, 1152f12b1e1b170d740c29e8ec04be9b
0,      26880,      26880,      640,     1280, f7343ebbee059ef2caef1ca54b262cc0
0,      27520,      27520,      640,     1280, ef942ec802bbdc4bd1bb0ee6dd5a226d
0,      28160,      28160,      640,     1280, 770abaea85aa3fc1d35f80c773bd5223
0,      28800,      28800,      640,     1280, f704771c09dff105ac45a95ff4d2a6fc
0,      29440,      29440,      640,     1280, 5591bfff3909d5eab958ffed1d8aa67c
0,      30080,      30080,      640,     1280, 6f945af66f686049bbcfc1d63fa65f2f
0,      30720,      30720,      640,     1280, 7a3d0ca75900f9f60dcf0d39a0231a1f
0,      31360,      31360,      640,     1280, a4f43e17a7b6591ec436e960c9a8c51d
0,      32000,      32000,      640,     1280, fe1750270c9a83a0fd2549e34d2931ef
0,      32640,      32640,      640,     1280, b45cdbddb99fca73108f3b88ba47520d
0,      33280,      33280,      640,     1280, 5f7d71a3dce9a9b585eed44545461232
0,      33920,      33920,      640,     1280, a2d02629176000eac033d577a9dd8a3f
0,      34560,      34560,      640,     1280, b360ac6d1be896bf7b06a00bad87fffc
0,      35200,      35200,      640,     1280, 0ccfca9e249fa3cd5e84f11bfbb36d31
0,      35840,      35840,      640,     1280, dadb9af58c7bf36d11141529c5cf47b7
0,      36480,      36480,      640,     1280, bb93fb805676bad3db700c6ffb158ea4
0,      37120,      37120,      640,     1280, d1644e28880fa9a72769581bd17a7107
0,      37760,      37760,      640,     1280, 99ff80b2cea2a66b222a4958b55dbced
0,      38400,      38400,      640,     1280, 28f3faa3601bb0f86963667054e18369
0,      39040,      39040,      640,     1280, 4890d2572cf175e621df7ff1a8d8e773
0,      39680,      39680,      640,     1280, f0ca68514e51098395c39522c497e0c5
0,      40320,      40320,      640,     1280, c9dfff14163fb732de9bd19b113b89d9
0,      40960,      40960,      640,     1280, aebfbd84e404f70d2840538c8960a083
0,      41600,      41600,      640,     1280, 9bd717cb234015d2824ccb342074f97b
0,      42240,      42240,      640,     1280, 6b437b90005a0bf82920f7aec8831492
0,      42880,      42880,      640,     1280, 28aaad0bdf4c4abec77237925f159d0a
0,      43520,      43520,      640,     1280, 021a0b8cd57ea41f0e5bc69b57c8d415
0,      44160,      44160,      640,     1280, 95bad96686e9ca62b23305f2025db81c
0,      44800,      44800,      640,     1280, fc4dd31e04f22f046a60cba44d3eeceb
0,      45440,      45440,      640,     1280, abab1efdf2c6d97ae74e484c8b1414af
0,      46080,      46080,      640,     1280, 0f5f2d1ea4af8df15110714da8b8e8c1
0,      46720,      46720,      640,     1280, 5317f8e7153487130e3becfe0e340062
0,      47360,      47360,      640,     1280, 3429ef08e003a2abc7e312ada94dca04
